<svg id="mermaid-1617645712882" width="100%" xmlns="http://www.w3.org/2000/svg" xmlns:xlink="http://www.w3.org/1999/xlink" height="785" style="max-width: 1123.4609375px;" viewBox="-20 -20 1123.4609375 785"><style>#mermaid-1617645712882{font-family:"trebuchet ms",verdana,arial,sans-serif;font-size:16px;fill:#333;}#mermaid-1617645712882 .error-icon{fill:#552222;}#mermaid-1617645712882 .error-text{fill:#552222;stroke:#552222;}#mermaid-1617645712882 .edge-thickness-normal{stroke-width:2px;}#mermaid-1617645712882 .edge-thickness-thick{stroke-width:3.5px;}#mermaid-1617645712882 .edge-pattern-solid{stroke-dasharray:0;}#mermaid-1617645712882 .edge-pattern-dashed{stroke-dasharray:3;}#mermaid-1617645712882 .edge-pattern-dotted{stroke-dasharray:2;}#mermaid-1617645712882 .marker{fill:#333333;}#mermaid-1617645712882 .marker.cross{stroke:#333333;}#mermaid-1617645712882 svg{font-family:"trebuchet ms",verdana,arial,sans-serif;font-size:16px;}#mermaid-1617645712882 g.classGroup text{fill:#9370DB;fill:#131300;stroke:none;font-family:"trebuchet ms",verdana,arial,sans-serif;font-size:10px;}#mermaid-1617645712882 g.classGroup text .title{font-weight:bolder;}#mermaid-1617645712882 .classTitle{font-weight:bolder;}#mermaid-1617645712882 .node rect,#mermaid-1617645712882 .node circle,#mermaid-1617645712882 .node ellipse,#mermaid-1617645712882 .node polygon,#mermaid-1617645712882 .node path{fill:#ECECFF;stroke:#9370DB;stroke-width:1px;}#mermaid-1617645712882 .divider{stroke:#9370DB;stroke:1;}#mermaid-1617645712882 g.clickable{cursor:pointer;}#mermaid-1617645712882 g.classGroup rect{fill:#ECECFF;stroke:#9370DB;}#mermaid-1617645712882 g.classGroup line{stroke:#9370DB;stroke-width:1;}#mermaid-1617645712882 .classLabel .box{stroke:none;stroke-width:0;fill:#ECECFF;opacity:0.5;}#mermaid-1617645712882 .classLabel .label{fill:#9370DB;font-size:10px;}#mermaid-1617645712882 .relation{stroke:#333333;stroke-width:1;fill:none;}#mermaid-1617645712882 .dashed-line{stroke-dasharray:3;}#mermaid-1617645712882 #compositionStart,#mermaid-1617645712882 .composition{fill:#333333 !important;stroke:#333333 !important;stroke-width:1;}#mermaid-1617645712882 #compositionEnd,#mermaid-1617645712882 .composition{fill:#333333 !important;stroke:#333333 !important;stroke-width:1;}#mermaid-1617645712882 #dependencyStart,#mermaid-1617645712882 .dependency{fill:#333333 !important;stroke:#333333 !important;stroke-width:1;}#mermaid-1617645712882 #dependencyStart,#mermaid-1617645712882 .dependency{fill:#333333 !important;stroke:#333333 !important;stroke-width:1;}#mermaid-1617645712882 #extensionStart,#mermaid-1617645712882 .extension{fill:#333333 !important;stroke:#333333 !important;stroke-width:1;}#mermaid-1617645712882 #extensionEnd,#mermaid-1617645712882 .extension{fill:#333333 !important;stroke:#333333 !important;stroke-width:1;}#mermaid-1617645712882 #aggregationStart,#mermaid-1617645712882 .aggregation{fill:#ECECFF !important;stroke:#333333 !important;stroke-width:1;}#mermaid-1617645712882 #aggregationEnd,#mermaid-1617645712882 .aggregation{fill:#ECECFF !important;stroke:#333333 !important;stroke-width:1;}#mermaid-1617645712882 .edgeTerminals{font-size:11px;}#mermaid-1617645712882:root{--mermaid-font-family:"trebuchet ms",verdana,arial,sans-serif;}#mermaid-1617645712882 class{fill:apa;}</style><g></g><defs><marker id="extensionStart" class="extension" refX="0" refY="7" markerWidth="190" markerHeight="240" orient="auto"><path d="M 1,7 L18,13 V 1 Z"></path></marker></defs><defs><marker id="extensionEnd" refX="19" refY="7" markerWidth="20" markerHeight="28" orient="auto"><path d="M 1,1 V 13 L18,7 Z"></path></marker></defs><defs><marker id="compositionStart" class="extension" refX="0" refY="7" markerWidth="190" markerHeight="240" orient="auto"><path d="M 18,7 L9,13 L1,7 L9,1 Z"></path></marker></defs><defs><marker id="compositionEnd" refX="19" refY="7" markerWidth="20" markerHeight="28" orient="auto"><path d="M 18,7 L9,13 L1,7 L9,1 Z"></path></marker></defs><defs><marker id="aggregationStart" class="extension" refX="0" refY="7" markerWidth="190" markerHeight="240" orient="auto"><path d="M 18,7 L9,13 L1,7 L9,1 Z"></path></marker></defs><defs><marker id="aggregationEnd" refX="19" refY="7" markerWidth="20" markerHeight="28" orient="auto"><path d="M 18,7 L9,13 L1,7 L9,1 Z"></path></marker></defs><defs><marker id="dependencyStart" class="extension" refX="0" refY="7" markerWidth="190" markerHeight="240" orient="auto"><path d="M 5,7 L9,13 L1,7 L9,1 Z"></path></marker></defs><defs><marker id="dependencyEnd" refX="19" refY="7" markerWidth="20" markerHeight="28" orient="auto"><path d="M 18,7 L9,13 L14,7 L9,1 Z"></path></marker></defs><g id="classid-FittsController-0" class="classGroup" transform="translate(654.390625,493 )"><rect x="0" y="0" width="182.359375" height="77" class=" "></rect><text y="15" x="0"><tspan class="title" x="56.5390625">FittsController</tspan></text><line x1="0" y1="21" y2="21" x2="182.359375"></line><text x="5" y="31" fill="white" class="classText"></text><line x1="0" y1="26" y2="26" x2="182.359375"></line><text x="5" y="41" fill="white" class="classText"><tspan x="5">-run() : void</tspan><tspan x="5" dy="10">+FittsController(_model : FittsModel)</tspan><tspan x="5" dy="10">+~FittsController()</tspan><tspan x="5" dy="10">+updateConfig(_config Config) : void</tspan></text></g><g id="classid-Config-1" class="classGroup" transform="translate(992.5078125,0 )"><rect x="0" y="0" width="90.953125" height="91" class=" "></rect><text y="15" x="0"><tspan x="19.6875">«structure»</tspan><tspan class="title" dy="10" x="30.78125">Config</tspan></text><line x1="0" y1="31" y2="31" x2="90.953125"></line><text x="5" y="41" fill="white" class="classText"><tspan x="5">+a : double</tspan><tspan x="5" dy="10">+b : double</tspan><tspan x="5" dy="10">+nbPoint : int</tspan><tspan x="5" dy="10">+minSize : int</tspan><tspan x="5" dy="10">+maxSize : int</tspan></text><line x1="0" y1="87" y2="87" x2="90.953125"></line><text x="5" y="102" fill="white" class="classText"></text></g><g id="classid-Stats-2" class="classGroup" transform="translate(886.75,476 )"><rect x="0" y="0" width="126.234375" height="111" class=" "></rect><text y="15" x="0"><tspan x="37.328125">«structure»</tspan><tspan class="title" dy="10" x="51.7734375">Stats</tspan></text><line x1="0" y1="31" y2="31" x2="126.234375"></line><text x="5" y="41" fill="white" class="classText"><tspan x="5">+ecartType : double</tspan><tspan x="5" dy="10">+erreurType : double</tspan><tspan x="5" dy="10">+diffMoy : double</tspan><tspan x="5" dy="10">+itc95 : double</tspan><tspan x="5" dy="10">+times : list&lt;double&gt;</tspan><tspan x="5" dy="10">+distances : list&lt;double&gt;</tspan><tspan x="5" dy="10">+sizes : list&lt;double&gt;</tspan></text><line x1="0" y1="107" y2="107" x2="126.234375"></line><text x="5" y="122" fill="white" class="classText"></text></g><g id="classid-FittsModel-3" class="classGroup" transform="translate(656.8359375,637 )"><rect x="0" y="0" width="161.8125" height="108" class=" "></rect><text y="15" x="0"><tspan class="title" x="56.546875">FittsModel</tspan></text><line x1="0" y1="21" y2="21" x2="161.8125"></line><text x="5" y="31" fill="white" class="classText"><tspan x="5">-config : Config</tspan><tspan x="5" dy="10">-stats : Stats</tspan></text><line x1="0" y1="47" y2="47" x2="161.8125"></line><text x="5" y="62" fill="white" class="classText"><tspan x="5">+FittsModel()</tspan><tspan x="5" dy="10">+getConfig() : Config</tspan><tspan x="5" dy="10">+getStats() : Stats</tspan><tspan x="5" dy="10">+setConfig(_config Config) : void</tspan><tspan x="5" dy="10">+setStats(_stats Stats) : void</tspan></text></g><g id="classid-ConfigView-4" class="classGroup" transform="translate(739.078125,141 )"><rect x="0" y="0" width="273.90625" height="128" class=" "></rect><text y="15" x="0"><tspan class="title" x="110.875">ConfigView</tspan></text><line x1="0" y1="21" y2="21" x2="273.90625"></line><text x="5" y="31" fill="white" class="classText"><tspan x="5">-MAX_MIN_RANGE : int = 250</tspan></text><line x1="0" y1="37" y2="37" x2="273.90625"></line><text x="5" y="52" fill="white" class="classText"><tspan x="5">+ConfigView(_config : Config, parent : QWidget = nullptr)</tspan><tspan x="5" dy="10">-updateA(_a : double) : void</tspan><tspan x="5" dy="10">-updateB(_b : double) : void</tspan><tspan x="5" dy="10">-updateMinSize(_minSize : int) : void</tspan><tspan x="5" dy="10">-updateMaxSize(_maxSize : int) : void</tspan><tspan x="5" dy="10">-updateNbPoint(_nbPoint : int) : void</tspan><tspan x="5" dy="10">-cancelPressed() : void</tspan><tspan x="5" dy="10">-confirmPressed() : void</tspan></text></g><g id="classid-GraphView-5" class="classGroup" transform="translate(362.15625,181.5 )"><rect x="0" y="0" width="326.921875" height="47" class=" "></rect><text y="15" x="0"><tspan class="title" x="138.1953125">GraphView</tspan></text><line x1="0" y1="21" y2="21" x2="326.921875"></line><text x="5" y="31" fill="white" class="classText"></text><line x1="0" y1="26" y2="26" x2="326.921875"></line><text x="5" y="41" fill="white" class="classText"><tspan x="5">+GraphView(config : Config, stats : Stats, parent : QWidget = nullptr)</tspan></text></g><g id="classid-TestView-6" class="classGroup" transform="translate(125.953125,181.5 )"><rect x="0" y="0" width="186.203125" height="47" class=" "></rect><text y="15" x="0"><tspan class="title" x="72.203125">TestView</tspan></text><line x1="0" y1="21" y2="21" x2="186.203125"></line><text x="5" y="31" fill="white" class="classText"></text><line x1="0" y1="26" y2="26" x2="186.203125"></line><text x="5" y="41" fill="white" class="classText"><tspan x="5">+TestView(parent : QWidget = nullptr)</tspan></text></g><g id="classid-MainWindow-7" class="classGroup" transform="translate(158.3125,319 )"><rect x="0" y="0" width="428.046875" height="107" class=" "></rect><text y="15" x="0"><tspan class="title" x="184.59375">MainWindow</tspan></text><line x1="0" y1="21" y2="21" x2="428.046875"></line><text x="5" y="31" fill="white" class="classText"></text><line x1="0" y1="26" y2="26" x2="428.046875"></line><text x="5" y="41" fill="white" class="classText"><tspan x="5">-configCancel() : void</tspan><tspan x="5" dy="10">-updateConfig(_config : Config) : void</tspan><tspan x="5" dy="10">+MainWindow(_controller : FittsController, _model : FittsModel, parent : QWidget = nullptr)</tspan><tspan x="5" dy="10">+~MainWindow()</tspan><tspan x="5" dy="10">+setTestView() : void</tspan><tspan x="5" dy="10">+setGraphView() : void</tspan><tspan x="5" dy="10">+setConfigView() : void</tspan></text></g><g id="classid-QWidget-8" class="classGroup" transform="translate(435.64453125,30.5 )"><rect x="0" y="0" width="49.484375" height="30" class=" "></rect><text y="15" x="0"><tspan class="title" x="5">QWidget</tspan></text><line x1="0" y1="21" y2="21" x2="49.484375"></line><text x="5" y="31" fill="white" class="classText"></text><line x1="0" y1="26" y2="26" x2="49.484375"></line><text x="5" y="41" fill="white" class="classText"></text></g><g id="classid-QMainWindow-9" class="classGroup" transform="translate(0,190 )"><rect x="0" y="0" width="75.953125" height="30" class=" "></rect><text y="15" x="0"><tspan class="title" x="5">QMainWindow</tspan></text><line x1="0" y1="21" y2="21" x2="75.953125"></line><text x="5" y="31" fill="white" class="classText"></text><line x1="0" y1="26" y2="26" x2="75.953125"></line><text x="5" y="41" fill="white" class="classText"></text></g><path d="M435.64453125,52.72790178210129L399.5462239583333,63.27325148508441C363.4479166666667,73.81860118806753,291.2513020833333,94.90930059403377,255.15299479166666,116.37131696368355C219.0546875,137.83333333333334,219.0546875,159.66666666666666,219.0546875,170.58333333333334L219.0546875,181.5" id="edge0" class="relation" marker-start="url(#extensionStart)"></path><path d="M474.2655418882979,60.5L482.8241494902482,69.75C491.3827570921986,79,508.49997229609926,97.5,517.0585798980496,117.66666666666667C525.6171875,137.83333333333334,525.6171875,159.66666666666666,525.6171875,170.58333333333334L525.6171875,181.5" id="edge1" class="relation" marker-start="url(#extensionStart)"></path><path d="M485.12890625,52.46510793611181L522.7447916666666,63.0542566134265C560.3606770833334,73.6434052907412,635.5924479166666,94.82170264537059,680.9427449087078,109.57751798935197C726.293041900749,124.33333333333333,741.7618650514981,132.66666666666666,749.4962766268727,136.83333333333334L757.2306882022472,141" id="edge2" class="relation" marker-start="url(#extensionStart)"></path><path d="M37.9765625,220L37.9765625,232.33333333333334C37.9765625,244.66666666666666,37.9765625,269.3333333333333,58.032552083333336,286.3753582721934C78.08854166666667,303.4173832110535,118.20052083333333,312.83476642210695,138.25651041666666,317.54345802763373L158.3125,322.25214963316046" id="edge3" class="relation" marker-start="url(#extensionStart)"></path><path d="M329.3384006767516,426L325.9896828556263,430.1666666666667C322.64096503450105,434.3333333333333,315.9435293922505,442.6666666666667,312.59481157112526,460.25C309.24609375,477.8333333333333,309.24609375,504.6666666666667,309.24609375,531.5C309.24609375,558.3333333333334,309.24609375,585.1666666666666,367.177734375,609.2639432061625C425.109375,633.3612197456583,540.97265625,654.7224394913168,598.904296875,665.403049364146L656.8359375,676.0836592369752" id="edge4" class="relation"></path><g class="classLabel"><rect class="box" x="369.9375" y="615.03125" width="36.375" height="16.015625"></rect><text class="label" x="388.10433341627026" y="626.5387578195055" fill="red" text-anchor="middle">-model</text></g><g class="cardinality"><text class="type1" x="317.6104816857335" y="432.61104501120025" fill="black" font-size="6">0</text></g><g class="cardinality"><text class="type2" x="645.4496630264213" y="668.9001535738378" fill="black" font-size="6">1</text></g><path d="M586.359375,417.5141813538745L612.89453125,423.09515112822874C639.4296875,428.676120902583,692.5,439.8380604512915,719.03515625,452.4190302256457C745.5703125,465,745.5703125,479,745.5703125,486L745.5703125,493" id="edge5" class="relation"></path><g class="cardinality"><text class="type1" x="597.5626443139151" y="424.9798867244262" fill="black" font-size="6">1 -controller</text></g><g class="cardinality"><text class="type2" x="750.5703125" y="480.5" fill="black" font-size="6">1 -view</text></g><path d="M745.5703125,570L745.5703125,577C745.5703125,584,745.5703125,598,745.1574367088607,609.1666666666666C744.7445609177215,620.3333333333334,743.9188093354429,628.6666666666666,743.5059335443038,632.8333333333334L743.0930577531645,637" id="edge6" class="relation"></path><g class="classLabel"><rect class="box" x="727.40625" y="592.046875" width="36.375" height="16.015625"></rect><text class="label" x="745.5703125" y="603.5612180050415" fill="red" text-anchor="middle">-model</text></g><g class="cardinality"><text class="type1" x="740.5703125" y="582.5" fill="black" font-size="6">0</text></g><g class="cardinality"><text class="type2" x="749.3012807245693" y="625.0539559879714" fill="black" font-size="6">1</text></g><path d="M219.0546875,228.5L219.0546875,239.41666666666666C219.0546875,250.33333333333334,219.0546875,272.1666666666667,227.1906349522293,287.25C235.32658240445858,302.3333333333333,251.59847730891718,310.6666666666667,259.7344247611465,314.8333333333333L267.8703722133758,319" id="edge7" class="relation dashed-line" marker-start="url(#dependencyStart)"></path><path d="M525.6171875,228.5L525.6171875,239.41666666666666C525.6171875,250.33333333333334,525.6171875,272.1666666666667,517.4812400477707,287.25C509.3452925955414,302.3333333333333,493.07339769108285,310.6666666666667,484.9374502388535,314.8333333333333L476.8015027866242,319" id="edge8" class="relation dashed-line" marker-start="url(#dependencyStart)"></path><path d="M876.03125,269L876.03125,273.1666666666667C876.03125,277.3333333333333,876.03125,285.6666666666667,827.7526041666666,297.3574726371246C779.4739583333334,309.0482786075825,682.9166666666666,324.096557215165,634.6380208333334,331.62069651895627L586.359375,339.1448358227475" id="edge9" class="relation dashed-line" marker-start="url(#dependencyStart)"></path><path d="M949.8671875,587L949.8671875,591.1666666666666C949.8671875,595.3333333333334,949.8671875,603.6666666666666,927.9973958333334,615.978123158515C906.1276041666666,628.2895796503634,862.3880208333334,644.5791593007267,840.5182291666666,652.7239491259085L818.6484375,660.8687389510901" id="edge10" class="relation" marker-start="url(#compositionStart)"></path><g class="classLabel"><rect class="box" x="880.984375" y="620.5625" width="29.96875" height="16.015625"></rect><text class="label" x="895.9718259254116" y="632.0718140925985" fill="red" text-anchor="middle">-stats</text></g><path d="M1044.4382757092199,91L1045.0292922576832,95.16666666666667C1045.6203088061466,99.33333333333333,1046.8023419030733,107.66666666666667,1047.3933584515366,126.66666666666667C1047.984375,145.66666666666666,1047.984375,175.33333333333334,1047.984375,205C1047.984375,234.66666666666666,1047.984375,264.3333333333333,1047.984375,292.25C1047.984375,320.1666666666667,1047.984375,346.3333333333333,1047.984375,372.5C1047.984375,398.6666666666667,1047.984375,424.8333333333333,1047.984375,451.3333333333333C1047.984375,477.8333333333333,1047.984375,504.6666666666667,1047.984375,531.5C1047.984375,558.3333333333334,1047.984375,585.1666666666666,1009.76171875,608.3163418196469C971.5390625,631.4660169726272,895.09375,650.9320339452545,856.87109375,660.6650424315682L818.6484375,670.3980509178817" id="edge11" class="relation" marker-start="url(#compositionStart)"></path><g class="classLabel"><rect class="box" x="1029.96875" y="458.1875" width="36.03125" height="16.015625"></rect><text class="label" x="1047.984375" y="469.70207753335586" fill="red" text-anchor="middle">-config</text></g><path d="M992.5078125,82.79036801453884L985.7578125,88.32530667878238C979.0078125,93.8602453430259,965.5078125,104.93012267151295,955.200857326779,114.63172800242315C944.893902153558,124.33333333333333,937.7799918071161,132.66666666666666,934.223036633895,136.83333333333334L930.6660814606741,141" id="edge12" class="relation" marker-start="url(#compositionStart)"></path><g class="classLabel"><rect class="box" x="941.53125" y="98.3125" width="36.03125" height="16.015625"></rect><text class="label" x="959.5489081085032" y="109.81637012529467" fill="red" text-anchor="middle">-config</text></g></svg>